<?xml version="1.0"?><svg width="640" height="480" xmlns="http://www.w3.org/2000/svg">
 <title>pink wave</title>
 <metadata id="metadata7">image/svg+xmlFlourish Eleven2006 SeptemberNathan EadyGalion Public LibraryOpen Clip Art Library</metadata>

 <g>
  <title>Layer 1</title>
  <g id="layer1">
   <path fill="#663300" fill-rule="evenodd" stroke="#663300" stroke-width="1px" id="path1324" d="m-280.46698,412.677551c-47.978668,-11.498627 -54.695648,-23.634857 -61.004181,-52.544495c-6.186615,-28.351501 18.649323,-47.93866 55.281433,-62.319763c36.63205,-14.381073 84.713425,-11.884186 109.847397,1.836243c25.716248,14.038208 28.940842,31.495697 11.757004,45.919739c-11.600845,9.73764 -29.982162,3.52002 -31.514374,-4.054199c-2.11087,-10.434174 31.871063,-11.883636 2.409775,-25.871399c-19.947769,-9.470886 -54.008148,-4.127319 -68.522415,11.146393c-14.514221,15.273621 -17.714478,40.122925 10.465485,49.948364c81.522476,28.424042 200.055618,-100.252899 380.912064,-122.261505c85.736145,-10.435791 236.777206,50.987579 303.578384,51.20462c157.45636,0.511566 222.172974,-75.710266 226.712219,-74.692291c4.539185,1.017899 -74.084412,83.912537 -228.023132,87.252777c-74.406372,1.614471 -227.824265,-54.083221 -303.809868,-43.423401c-169.426369,23.768372 -297.336845,164.401978 -408.08979,137.858917z"/>
  </g>
  <text fill="#000000" stroke="#000000" stroke-width="0" stroke-dasharray="null" stroke-linejoin="null" stroke-linecap="null" opacity="0.5" x="242" y="196" id="svg_3" font-size="24" font-family="serif" text-anchor="middle" xml:space="preserve"/>
  <path fill="#fcfcfc" stroke="#ffffff" stroke-width="5" stroke-dasharray="null" stroke-linejoin="null" stroke-linecap="null" d="m73,260l-21,-15l-5,-30l35,14l-9,31z" id="svg_5"/>
  <g id="svg_4">
   <path id="svg_6" fill="#fa6eb4" fill-rule="evenodd" stroke="#fa6eb4" stroke-width="1px" d="m-130.46936,414.677551c-48.840515,-11.498627 -55.678162,-23.634857 -62.100006,-52.544495c-6.297745,-28.351501 18.984314,-47.93866 56.27446,-62.319763c37.290077,-14.381073 86.235149,-11.884186 111.820599,1.836243c26.178182,14.038208 29.460711,31.495697 11.968195,45.919739c-11.809238,9.73764 -30.520731,3.52002 -32.080473,-4.054199c-2.148788,-10.434174 32.443571,-11.883636 2.453064,-25.871399c-20.306099,-9.470886 -54.978302,-4.127319 -69.753288,11.146393c-14.774925,15.273621 -18.032669,40.122925 10.653481,49.948364c82.986868,28.424042 203.649223,-100.252899 387.754387,-122.261505c87.276245,-10.435791 241.030518,50.987579 309.031555,51.20462c160.28479,0.511566 226.163879,-75.710266 230.784668,-74.692291c4.620789,1.017899 -75.415161,83.912537 -232.119141,87.252777c-75.74292,1.614471 -231.916626,-54.083221 -309.267181,-43.423401c-172.46978,23.768372 -302.677906,164.401978 -415.420319,137.858917z"/>
  </g>
 </g>
</svg>